<?xml version="1.0" encoding="UTF-8"?>
<svg width="92px" height="88px" viewBox="0 0 92 88" version="1.1" xmlns="http://www.w3.org/2000/svg" xmlns:xlink="http://www.w3.org/1999/xlink">
    <defs></defs>
    <g id="Page-1" stroke="none" stroke-width="1" fill="none" fill-rule="evenodd">
        <path d="M79.4,0.65 L22.6,0.65 C15.6987261,0.655514405 10.1055144,6.24872606 10.1,13.15 L10.1,59.33 C10.1,60.7107119 11.2192881,61.83 12.6,61.83 C13.9807119,61.83 15.1,60.7107119 15.1,59.33 L15.1,13.15 C15.1055088,9.01014834 18.4601483,5.65550879 22.6,5.65 L69.49,5.65 C67.888619,7.76711937 67.0151278,10.3454969 67,13 L67,75 C67,79.0786229 63.6936229,82.385 59.615,82.385 C55.5363771,82.385 52.23,79.0786229 52.23,75 L52.23,68.15 C52.23,66.7692881 51.1107119,65.65 49.73,65.65 L2.73,65.65 C1.34928813,65.65 0.23,66.7692881 0.23,68.15 L0.23,75 C0.257468743,81.8171077 5.78285678,87.3335622 12.6,87.35 L59.6,87.35 C66.4288521,87.3500555 71.9724643,81.8287966 72,75 L72,13 C72,8.92137712 75.3063771,5.615 79.385,5.615 C83.4636229,5.615 86.77,8.92137712 86.77,13 L86.77,17.31 L79.72,17.31 C78.3392881,17.31 77.22,18.4292881 77.22,19.81 C77.22,21.1907119 78.3392881,22.31 79.72,22.31 L89.28,22.31 C90.6607119,22.31 91.78,21.1907119 91.78,19.81 L91.78,13 C91.7525045,6.1789998 86.2210468,0.660946286 79.4,0.65 Z M12.6,82.35 C8.53418578,82.3500596 5.23200711,79.0657547 5.21,75 L5.21,70.65 L47.21,70.65 L47.21,75 C47.2085532,77.6599818 48.0680484,80.2489919 49.66,82.38 L12.6,82.35 Z M33.5,14.64 L33.5,16.36 C36.2499642,17.1185066 38.4989865,19.0983836 39.6,21.73 C40.0188386,22.5645127 39.9377228,23.5628794 39.3896611,24.3188328 C38.8415995,25.0747862 37.9179467,25.4623188 36.9945668,25.3237311 C36.0711868,25.1851434 35.3019949,24.5435362 35,23.66 C34.3279966,22.0454199 32.7488382,20.9952796 31,21 C28.92,21 26.67,22.18 26.67,24.76 C26.67,25.43 26.67,27.46 31.55,28.58 L31.63,28.58 C39.18,30.34 40.31,34.76 40.31,37.25 C40.3194653,41.324521 37.4747105,44.8491806 33.49,45.7 L33.49,47.4 C33.49,48.7807119 32.3707119,49.9 30.99,49.9 C29.6092881,49.9 28.49,48.7807119 28.49,47.4 L28.49,45.68 C25.7362541,44.9241879 23.4831007,42.9439205 22.38,40.31 C22.0352387,39.4847165 22.1569496,38.5381951 22.6992854,37.8269813 C23.2416213,37.1157674 24.1221883,36.7479115 25.0092855,36.8619812 C25.8963826,36.976051 26.6552387,37.5547165 27,38.38 C27.6843728,39.9788994 29.2608296,41.0114786 31,41 C33.08,41 35.33,39.82 35.33,37.24 C35.33,36.57 35.33,34.54 30.45,33.42 L30.36,33.42 C22.81,31.66 21.68,27.24 21.68,24.75 C21.6715342,20.6724404 24.5213135,17.1467252 28.51,16.3 L28.51,14.64 C28.51,13.2592881 29.6292881,12.14 31.01,12.14 C32.3907119,12.14 33.51,13.2592881 33.51,14.64 L33.5,14.64 Z M43.67,19.43 C43.67,18.0492881 44.7892881,16.93 46.17,16.93 L57.94,16.93 C59.3207119,16.93 60.44,18.0492881 60.44,19.43 C60.44,20.8107119 59.3207119,21.93 57.94,21.93 L46.17,21.93 C45.5052225,21.9300053 44.8678176,21.6652409 44.3986881,21.194235 C43.9295586,20.723229 43.6673409,20.0847722 43.67,19.42 L43.67,19.43 Z M43.67,31.43 C43.67,30.0492881 44.7892881,28.93 46.17,28.93 L57.94,28.93 C59.3207119,28.93 60.44,30.0492881 60.44,31.43 C60.44,32.8107119 59.3207119,33.93 57.94,33.93 L46.17,33.93 C44.7892881,33.93 43.67,32.8107119 43.67,31.43 L43.67,31.43 Z M43.67,43.43 C43.67,42.0492881 44.7892881,40.93 46.17,40.93 L57.94,40.93 C59.3207119,40.93 60.44,42.0492881 60.44,43.43 C60.44,44.8107119 59.3207119,45.93 57.94,45.93 L46.17,45.93 C44.793184,45.930011 43.6755073,44.816805 43.67,43.44 L43.67,43.43 Z M21.67,55.43 C21.67,54.0492881 22.7892881,52.93 24.17,52.93 L57.94,52.93 C59.3207119,52.93 60.44,54.0492881 60.44,55.43 C60.44,56.8107119 59.3207119,57.93 57.94,57.93 L24.17,57.93 C22.797061,57.9300439 21.6809835,56.822895 21.67,55.45 L21.67,55.43 Z" id="Shape" fill="#ffffff" fill-rule="nonzero"></path>
    </g>
</svg>
