<?xml version="1.0" encoding="UTF-8"?>
<svg width="90px" height="90px" viewBox="0 0 90 90" version="1.1" xmlns="http://www.w3.org/2000/svg" xmlns:xlink="http://www.w3.org/1999/xlink">
    <defs></defs>
    <g id="Page-1" stroke="none" stroke-width="1" fill="none" fill-rule="evenodd">
        <path d="M62.3,0 C51.7,0 42.5,6 37.8,14.8 C32.9,17.4 28.8,21.4 26.2,26.4 C21.3,29 17.2,33 14.6,38 C6,42.5 0,51.7 0,62.3 C0,77.6 12.4,90 27.7,90 C38.3,90 47.5,84 52.2,75.2 C57.1,72.6 61.2,68.6 63.8,63.6 C68.7,61 72.8,57 75.4,52 C84,47.5 90,38.3 90,27.7 C90,12.4 77.6,0 62.3,0 Z M27.7,85.4 C15,85.4 4.6,75.1 4.6,62.3 C4.6,55.6 7.5,49.6 12.1,45.3 C13.9,43.6 16,42.3 18.2,41.2 C21.1,39.9 24.3,39.1 27.7,39.1 C40.4,39.1 50.8,49.4 50.8,62.2 C50.8,65.6 50.1,68.8 48.7,71.7 C47.7,74 46.3,76 44.6,77.8 C40.4,82.5 34.4,85.4 27.7,85.4 Z M54.8,67.7 C55.1,65.9 55.3,64.1 55.3,62.3 C55.3,47 42.9,34.6 27.6,34.6 C25.7,34.6 23.9,34.8 22.2,35.1 C22.6,34.6 23.1,34.2 23.6,33.7 C25.4,32 27.5,30.7 29.7,29.6 C32.6,28.3 35.8,27.6 39.2,27.6 C51.9,27.6 62.3,37.9 62.3,50.7 C62.3,54.1 61.6,57.3 60.3,60.2 C59.3,62.5 57.9,64.5 56.2,66.3 C55.7,66.8 55.3,67.3 54.8,67.7 Z M66.3,56.2 C66.7,54.4 66.8,52.6 66.8,50.8 C66.8,35.5 54.4,23.1 39.1,23.1 C37.2,23.1 35.4,23.3 33.7,23.6 C34.1,23.1 34.6,22.7 35.1,22.2 C36.9,20.5 39,19.2 41.2,18.1 C44.1,16.8 47.3,16.1 50.7,16.1 C63.4,16.1 73.8,26.4 73.8,39.2 C73.8,42.6 73.1,45.8 71.8,48.7 C70.8,51 69.4,53 67.7,54.8 C67.3,55.3 66.8,55.8 66.3,56.2 Z M77.9,44.6 C78.3,42.8 78.4,41 78.4,39.2 C78.4,24 66,11.6 50.8,11.6 C48.9,11.6 47.1,11.8 45.4,12.1 C49.6,7.5 55.7,4.6 62.4,4.6 C75.1,4.6 85.5,14.9 85.5,27.7 C85.4,34.4 82.5,40.4 77.9,44.6 Z M36.5,67.1 C36.5,70.6 34,73.6 29.5,74.4 L29.5,76.5 C29.5,77.6 28.6,78.4 27.6,78.4 L27.6,78.4 C26.5,78.4 25.7,77.5 25.7,76.5 L25.7,74.7 C24,74.6 22.3,74.3 21,73.9 C19.9,73.5 19.2,72.3 19.5,71.2 L19.5,71 C19.8,69.7 21.2,69 22.4,69.5 C23.7,69.9 25.1,70.2 26.7,70.2 C28.9,70.2 30.5,69.3 30.5,67.8 C30.5,66.3 29.2,65.4 26.3,64.4 C22.1,63 19.2,61 19.2,57.2 C19.2,53.7 21.6,51 25.9,50.2 L25.9,48.4 C25.9,47.3 26.8,46.5 27.8,46.5 L27.8,46.5 C28.9,46.5 29.7,47.4 29.7,48.4 L29.7,49.9 C31.1,50 32.3,50.2 33.3,50.4 C34.5,50.7 35.3,52 35,53.2 C34.7,54.4 33.4,55.2 32.2,54.8 C31.3,54.5 30.1,54.3 28.7,54.3 C26.1,54.3 25.3,55.4 25.3,56.5 C25.3,57.8 26.7,58.6 30,59.9 C34.6,61.4 36.5,63.6 36.5,67.1 Z" id="Shape" fill="#ffffff" fill-rule="nonzero"></path>
    </g>
</svg>
