<?xml version="1.0" encoding="UTF-8"?>
<svg width="106px" height="73px" viewBox="0 0 106 73" version="1.1" xmlns="http://www.w3.org/2000/svg" xmlns:xlink="http://www.w3.org/1999/xlink">
    <!-- Generator: Sketch 45.1 (43504) - http://www.bohemiancoding.com/sketch -->
    <title>Group</title>
    <desc>Created with Sketch.</desc>
    <defs></defs>
    <g id="Page-1" stroke="none" stroke-width="1" fill="none" fill-rule="evenodd">
        <g id="Group" transform="translate(-1.000000, 0.000000)" fill-rule="nonzero" fill="#000000">
            <path d="M32.181631,63.7817297 L44.2017858,72.598873 C45.4772344,73.5344528 47.2468327,72.4594665 47.0043927,70.8963605 L45.512824,61.3005406 L45.87308,61.1657023 C56.8364369,56.7015215 64.0027651,47.133059 64.0027651,36.3818113 C64.0027651,21.2296405 49.9159107,9.05923061 32.6571428,9.05923061 C15.398375,9.05923061 1.31152074,21.2296405 1.31152074,36.3818113 C1.31152074,51.0763025 14.5911454,63.0386428 31.2556898,63.6775771 C31.2556898,63.6775771 32.1650536,63.7695697 32.181631,63.7817297 Z M4.85990784,36.3818113 C4.85990784,23.3140129 17.2522126,12.6076177 32.6571428,12.6076177 C48.0620729,12.6076177 60.454378,23.3140129 60.454378,36.3818113 C60.454378,45.6136791 54.2222429,53.9348093 44.5819674,57.8609325 L43.6148403,58.2221385 C42.4052796,58.6748591 41.7081784,59.9009663 41.9002487,61.1393207 L42.8290582,67.2064601 L34.280384,60.9205609 C33.6710955,60.4736295 32.7260719,60.1569987 31.9619157,60.142379 L31.3576017,60.1308173 C16.5304735,59.5620045 4.85990784,49.0491111 4.85990784,36.3818113 Z" id="Shape"></path>
            <path d="M97.3145562,49.1434407 C95.5002492,50.3627985 93.5189633,51.419121 91.3951915,52.2839016 L91.0349351,52.4187404 L92.5265043,62.0145598 C92.7689443,63.5776662 90.9993459,64.6526526 89.7238973,63.7170728 L77.7037424,54.8999291 C77.687165,54.8877691 76.7778011,54.7957768 76.7778011,54.7957768 C60.1132567,54.1568425 46.8336323,42.1945022 46.8336323,27.5000108 C46.8336323,12.34784 60.9204864,0.177430184 78.1792543,0.177430184 C90.7147574,0.177430184 101.576916,6.59793498 106.58341,15.9180938 C105.513392,16.462275 104.489962,17.0660875 103.519277,17.7240559 C99.1657895,9.49107411 89.483652,3.72581727 78.1792543,3.72581727 C62.7743242,3.72581727 50.3820194,14.4322125 50.3820194,27.5000108 C50.3820194,40.1673105 62.0525851,50.6802038 76.8797132,51.249017 L77.484027,51.2605787 C78.2481835,51.2751985 79.193207,51.5918292 79.8024955,52.0387603 L88.3511697,58.3246599 L87.4223602,52.2575205 C87.2302895,51.019166 87.9273911,49.7930588 89.1369518,49.3403382 L90.1040786,48.9791323 C92.0178082,48.1997418 93.7972303,47.2471539 95.420253,46.1486257 C95.9680583,47.1859421 96.6014947,48.1866837 97.3145562,49.1434407 Z" id="Shape" transform="translate(76.708521, 32.121647) scale(-1, 1) translate(-76.708521, -32.121647) "></path>
            <path d="M29.6675606,33.0974103 C29.30092,33.1931352 28.9289461,33.2989658 28.5545026,33.4141145 C28.5743594,32.2553426 28.6669758,31.0530887 28.8404103,29.8093294 C31.1532881,29.6501842 33.5765987,29.2795339 36.0157529,28.7589429 C37.1729706,28.5119539 38.2563465,28.2473045 39.2370639,27.9821761 C39.8306345,27.8217145 40.2623739,27.6953706 40.5031035,27.6202832 C41.4385152,27.3285065 41.9602842,26.3336771 41.6685074,25.3982655 C41.3767342,24.4628574 40.3819048,23.9410884 39.4464932,24.2328616 C39.2475068,24.29493 38.8590187,24.4086132 38.3110413,24.5567513 C37.3891881,24.8059652 36.3670752,25.055651 35.2750981,25.2887161 C33.3275126,25.7043884 31.3966294,26.0170581 29.5510032,26.1912129 C29.6920374,25.6314371 29.8489648,25.0645326 30.0224029,24.4906448 C30.3058694,23.5526855 29.7752968,22.5625223 28.8373339,22.2790558 C27.899371,21.9955894 26.9092077,22.5261619 26.6257413,23.4641248 C26.3309874,24.4394452 26.0792897,25.3985316 25.8683061,26.3406426 C24.1617732,26.3027068 22.6656597,26.0931603 21.4291958,25.69985 C20.4954377,25.4028287 19.4976916,25.9190019 19.2006703,26.85276 C18.903649,27.7865181 19.4198258,28.7842642 20.3535839,29.0812855 C21.8015068,29.541859 23.4429552,29.7963281 25.2535516,29.8716071 C25.0444345,31.5678035 24.9700213,33.2000332 25.0144755,34.763339 C23.9164413,35.2687394 22.8795068,35.8372761 21.9841742,36.4469281 C18.4507861,38.8529048 16.9680003,41.9649397 18.8594468,45.2758439 C20.9211697,48.8848126 25.1155265,48.8406884 29.0853945,45.8855135 C31.9093074,43.7833852 34.4798335,40.3971487 36.3434677,36.262089 C38.8814552,36.8353345 40.6472674,38.438361 40.6472674,40.8681758 C40.6472674,42.7402658 39.5222406,44.1119516 37.4564832,45.1315877 C36.6651432,45.52218 35.8011323,45.82325 34.9351484,46.0412203 C34.419181,46.1710913 34.0287129,46.2423855 33.8320152,46.2681077 C32.8604277,46.3951506 32.1757877,47.2857674 32.3028306,48.2573548 C32.4298735,49.2289458 33.3204903,49.9135858 34.2920813,49.7865429 C35.5131594,49.6268761 37.2536645,49.1887887 39.0270277,48.3134797 C42.1859013,46.7542971 44.1956545,44.3039123 44.1956545,40.8681758 C44.1956545,36.5673035 41.41577,33.8895381 37.6423371,32.9048145 C37.7220729,32.6608594 37.799371,32.4151016 37.8741639,32.16763 C38.1576303,31.2296671 37.6270542,30.2395039 36.6890948,29.9560374 C35.7511319,29.672571 34.7609687,30.2031435 34.4775023,31.1411065 C34.3406977,31.5937813 34.1947171,32.0394587 34.0402061,32.4774539 C32.9631358,32.4860516 31.8559503,32.6069523 30.7486052,32.8413232 C30.3954874,32.9160629 30.0341623,33.0016926 29.6675003,33.0974245 L29.6675606,33.0974103 Z M30.1387084,36.6465142 L30.138641,36.6465319 C30.5981535,36.5167887 31.0492281,36.4046916 31.4833555,36.3128061 C31.8127806,36.2430839 32.1398142,36.1863381 32.4632532,36.142331 C31.5760997,37.8633661 30.5579042,39.3917523 29.4658916,40.6667303 C29.4584258,40.6405929 29.4509565,40.6142497 29.44348,40.5877006 C29.1326271,39.483911 28.8950874,38.3156826 28.7434187,37.0860777 C29.2112842,36.9236255 29.6792171,36.7762468 30.1387084,36.6465142 Z M25.3676713,38.547481 C25.53507,39.5866261 25.7571316,40.5879455 26.0279516,41.5495903 C26.2203558,42.2327826 26.4155526,42.8186142 26.5988019,43.3032316 C24.3167384,44.8801881 22.69179,44.830791 21.9405077,43.5156984 C21.1716468,42.1698377 21.7899994,40.8720506 23.9813271,39.3799219 C24.4028152,39.0929177 24.8698468,38.8139542 25.3676713,38.547481 Z" id="Shape"></path>
            <path d="M76.302946,21.6161049 L81.7039492,37.8191138 C82.0138078,38.7486905 83.0185691,39.2510711 83.9481461,38.9412121 C84.8777227,38.6313535 85.3801034,37.6265922 85.0702444,36.6970152 L77.9734702,15.4066927 C77.4342953,13.789167 75.1463499,13.789167 74.607175,15.4066927 L67.5104008,36.6970152 C67.2005418,37.6265922 67.7029224,38.6313535 68.6324991,38.9412121 C69.5620761,39.2510711 70.5668374,38.7486905 70.876696,37.8191138 L76.302946,21.6161049 Z" id="Shape"></path>
            <rect id="Rectangle-path" x="70.9677419" y="28.3870968" width="10.6451613" height="3.5483871"></rect>
        </g>
    </g>
</svg>